<?xml version="1.0" standalone="no"?>
<!DOCTYPE svg PUBLIC "-//W3C//DTD SVG 20010904//EN"
 "http://www.w3.org/TR/2001/REC-SVG-20010904/DTD/svg10.dtd">
<svg version="1.0" xmlns="http://www.w3.org/2000/svg"
 width="1458.000000pt" height="1375.000000pt" viewBox="0 0 1458.000000 1375.000000"
 preserveAspectRatio="xMidYMid meet">

<g transform="translate(0.000000,1375.000000) scale(0.100000,-0.100000)"
fill="#000000" stroke="none">
<path d="M200 6885 l0 -6685 7090 0 7090 0 0 6685 0 6685 -7090 0 -7090 0 0
-6685z m10588 6357 c111 -35 200 -109 251 -210 l22 -44 -1 -2614 -1 -2614 216
0 215 0 0 2608 0 2607 24 50 c41 88 150 173 266 206 34 10 191 13 665 14 341
1 667 5 724 9 174 14 281 -22 392 -133 49 -49 71 -81 87 -124 l22 -58 0 -6082
0 -6082 -24 -50 c-41 -89 -152 -174 -266 -205 -34 -10 -237 -13 -800 -13 -563
0 -766 3 -800 13 -116 31 -224 114 -266 203 l-24 52 0 2623 0 2622 -840 0
-840 0 0 -2632 0 -2633 -30 -51 c-74 -130 -245 -204 -470 -204 -225 0 -396 74
-470 204 l-30 51 0 2890 0 2890 30 51 c35 62 82 102 164 142 137 67 50 64
1626 59 1327 -3 1429 -5 1485 -21 135 -40 237 -116 281 -209 l24 -52 0 -2612
0 -2613 160 0 160 0 0 5595 0 5595 -160 0 -160 0 0 -2614 0 -2613 -35 -71
c-43 -86 -100 -146 -168 -178 l-52 -24 -890 0 -890 0 -52 24 c-67 32 -126 93
-166 175 l-32 66 -3 2628 -2 2627 -160 0 -160 0 0 -2632 0 -2633 -30 -51 c-35
-62 -81 -102 -165 -143 -89 -44 -173 -61 -305 -61 -132 0 -216 17 -305 61 -84
41 -130 81 -165 143 l-30 51 0 2888 c0 2641 1 2891 16 2920 31 62 67 99 137
145 133 85 78 81 974 81 743 1 795 0 851 -17z m-9223 -67 c139 -36 256 -124
307 -230 l28 -60 0 -2583 0 -2582 1323 6 c1469 8 1351 13 1414 -59 69 -78 103
-194 103 -347 0 -174 -52 -313 -139 -375 l-43 -30 -966 -6 c-532 -4 -1312 -7
-1733 -8 l-766 -1 -34 23 c-50 33 -94 98 -119 172 l-22 65 2 2862 1 2862 26
58 c46 104 167 196 303 232 74 20 240 20 315 1z m6586 0 c303 -53 499 -202
499 -380 0 -145 -121 -265 -343 -341 -161 -55 -132 -54 -1542 -54 -1410 0
-1381 -1 -1542 54 -157 54 -271 135 -317 228 -105 211 99 426 467 493 113 21
2661 21 2778 0z m-1091 -1050 c477 -105 797 -375 1007 -849 157 -352 255 -769
423 -1791 189 -1146 227 -1632 154 -1983 -55 -267 -153 -470 -261 -541 -37
-25 -57 -31 -99 -31 -68 0 -146 17 -210 45 -200 88 -294 348 -319 880 -9 190
-24 459 -31 543 l-6 72 -923 0 -923 0 -6 -62 c-3 -35 -15 -200 -26 -368 -31
-476 -62 -649 -145 -818 -74 -149 -171 -230 -339 -281 -245 -75 -358 49 -453
498 -25 116 -27 145 -27 361 0 232 0 240 52 590 166 1126 282 1756 434 2355
135 537 279 830 522 1063 178 170 396 280 651 327 107 19 419 14 525 -10z
m-5487 -5351 c135 -35 253 -120 302 -217 l25 -51 0 -1228 0 -1228 960 0 960 0
0 1218 0 1218 25 51 c49 97 167 182 302 217 80 21 246 21 326 0 135 -35 254
-121 302 -218 l25 -52 0 -2849 0 -2849 -25 -52 c-48 -97 -167 -183 -302 -218
-80 -21 -246 -21 -326 0 -135 35 -253 120 -302 217 l-25 51 0 1228 0 1228
-960 0 -960 0 0 -1218 0 -1218 -25 -51 c-49 -97 -167 -182 -302 -217 -80 -21
-246 -21 -326 0 -135 35 -253 120 -302 217 l-25 51 0 2851 0 2851 25 51 c48
95 156 175 290 214 79 23 255 25 338 3z m6608 -19 c228 -40 412 -143 473 -267
106 -213 -100 -428 -473 -493 -125 -22 -2647 -22 -2772 0 -228 40 -412 143
-473 267 -105 211 99 426 467 493 113 21 2661 21 2778 0z m-1041 -1010 c414
-93 712 -331 912 -729 184 -367 292 -818 482 -2026 180 -1136 211 -1564 140
-1908 -55 -267 -153 -470 -261 -541 -55 -36 -120 -41 -218 -16 -173 46 -257
131 -325 332 -51 153 -69 293 -90 708 -11 209 -23 404 -26 432 l-5 53 -923 0
-923 0 -7 -72 c-3 -40 -15 -206 -26 -368 -32 -474 -62 -639 -145 -808 -74
-149 -171 -230 -339 -281 -245 -75 -358 49 -453 498 -25 116 -27 145 -27 361
0 229 1 243 47 555 186 1257 342 2053 511 2608 76 247 194 498 314 666 205
288 516 487 853 545 113 20 404 15 509 -9z"/>
</g>
</svg>
